<?xml version="1.0" encoding="UTF-8" standalone="no"?>
<svg
   xmlns:dc="http://purl.org/dc/elements/1.1/"
   xmlns:cc="http://creativecommons.org/ns#"
   xmlns:rdf="http://www.w3.org/1999/02/22-rdf-syntax-ns#"
   xmlns:svg="http://www.w3.org/2000/svg"
   xmlns="http://www.w3.org/2000/svg"
   version="1.1"
   viewBox="0 0 280.63 280.63"
   data-name="Layer 1"
   id="Layer_1">
  <metadata
     id="metadata31">
    <rdf:RDF>
      <cc:Work
         rdf:about="">
        <dc:format>image/svg+xml</dc:format>
        <dc:type
           rdf:resource="http://purl.org/dc/dcmitype/StillImage" />
      </cc:Work>
    </rdf:RDF>
  </metadata>
  <defs
     id="defs4">
    <style
       id="style2">.cls-1{fill:#0071ba;}.cls-2{fill:#8cb6e1;}.cls-3{fill:#fff;}.cls-4{fill:#ffd103;}.cls-5,.cls-6,.cls-7{fill:none;stroke:#ffd103;}.cls-5{stroke-width:7.98px;}.cls-6{stroke-width:7.98px;}.cls-7{stroke-width:13.3px;}.cls-8{fill:#fefeff;}</style>
  </defs>
  <path
     id="path6"
     transform="translate(-157 -280.89)"
     d="M202.63,280.89A45.63,45.63,0,0,0,157,326.52V515.89a45.63,45.63,0,0,0,45.63,45.63H392a45.63,45.63,0,0,0,45.63-45.63V326.52A45.63,45.63,0,0,0,392,280.89Z"
     class="cls-1" />
  <path
     id="path8"
     transform="translate(-157 -280.89)"
     d="M265.73,536.19h9V514.33H283V506.8H257.5v7.53h8.23v21.86ZM293,525.69l2.84-9.05h.09l2.63,9.05Zm-12.38,10.5h9.09L291,532h9.34l1.24,4.2H311L300.3,506.8h-8.85l-10.82,29.39Zm30.53-9.88c.09,9.38,9.59,10.58,12.93,10.58,6.54,0,13.58-2.47,13.58-10.13,0-5.39-4.12-7.32-8.27-8.47s-8.36-1.61-8.52-3.71c0-1.64,2-2,3.25-2a4.65,4.65,0,0,1,2.67.74,2.23,2.23,0,0,1,1.07,2.34h8.56c-.24-7.16-5.88-9.59-12.26-9.59-6.05,0-11.85,2.93-11.85,9.72,0,5.92,5.31,7.2,10,8.52,5.06,1.44,6.33,1.85,6.33,3.37,0,2.18-2.26,2.68-3.74,2.68-1.69,0-3.66-.38-4.32-2.14a5.39,5.39,0,0,1-.33-1.94Z"
     class="cls-2" />
  <path
     id="path10"
     transform="translate(-157 -280.89)"
     d="M251.73,478.74c-.78-6.48-6.57-10-12.41-10-9.72,0-14.56,7.66-14.56,16.09s4.84,16.08,14.56,16.08c7.22,0,12-4.85,12.84-12.41h-2.94c-.56,5.49-4.19,9.9-9.9,9.9-8.17,0-11.63-6.83-11.63-13.57s3.46-13.58,11.63-13.58a9.36,9.36,0,0,1,9.47,7.48Zm5.79,21.53h2.94v-15h18.33v15h2.94V469.4h-2.94v13.4H260.46V469.4h-2.94v30.87Zm31.3,0h21.53v-2.51H291.76V485.57H309v-2.51H291.76V471.91h18.37V469.4H288.82v30.87Zm52-21.53c-.77-6.48-6.57-10-12.4-10-9.73,0-14.57,7.66-14.57,16.09s4.84,16.08,14.57,16.08c7.22,0,12-4.85,12.84-12.41h-2.94c-.56,5.49-4.2,9.9-9.9,9.9-8.17,0-11.63-6.83-11.63-13.57s3.46-13.58,11.63-13.58a9.36,9.36,0,0,1,9.47,7.48Zm5.8,21.53h2.94V489.68l5.92-5.49,12.84,16.08h3.8l-14.44-18.11,13.79-12.76h-4L349.56,486V469.4h-2.94v30.87Z"
     class="cls-3" />
  <path
     id="path12"
     transform="translate(-157 -280.89)"
     d="M224.84,463h12.22V447.93h15.83v-9.45H237.06v-4.94h18.45V423.37H224.84V463Zm71-39.67H283.62V445c0,4.05,0,9.11-5.78,9.11-5.94,0-5.94-5.06-5.94-9.11V423.37H259.67v24.34c0,11,6,16.28,18.12,16.28s18-5.28,18-16.28V423.37ZM302,463h33.45V452.88H314.23v-4.95H333v-9.45H314.23v-4.94h20.62V423.37H302V463Zm39.11,0H370.9V452.88H353.35V423.37H341.12V463Z"
     class="cls-4" />
  <path
     id="path14"
     transform="translate(-157 -280.89)"
     d="M189.21,410.61h30.17m155.87,0h30.17M297.31,336.67V307.91"
     class="cls-5" />
  <line
     id="line16"
     y2="78.67"
     x2="88.21"
     y1="57.92"
     x1="67.46"
     class="cls-6" />
  <line
     id="line18"
     y2="76.84"
     x2="194.63"
     y1="56.04"
     x1="215.43"
     class="cls-6" />
  <path
     id="path20"
     transform="translate(-157 -280.89)"
     d="M398.77,414.61a101.46,101.46,0,1,0-202.91,0"
     class="cls-7" />
  <path
     id="path22"
     transform="translate(-157 -280.89)"
     d="M271.53,356.17l.24.07c4.23,1.23,8.18,3,12.43,4.14a77.32,77.32,0,0,0,13.67,2.39,114.53,114.53,0,0,0,15.61.1c2-.08,5.59-.9,7.49-.22,1.66.6,1.14,2.5.66,3.82,0,0-5.55,29.2-14.47,43.39,0,0-3.57,8-10.23,3.25a19.34,19.34,0,0,1-3.58-2.27,46.22,46.22,0,0,1-11.83-13.75c-2.33-4-3.89-8.27-5.81-12.42a86.81,86.81,0,0,1-4.49-13.31c-1.27-4.51-2.66-9.17-2.05-13.94a1.9,1.9,0,0,1,.28-.9c.44-.61,1.32-.54,2.08-.35Z"
     class="cls-8" />
  <path
     id="path24"
     transform="translate(-157 -280.89)"
     d="M322.41,352a6.12,6.12,0,0,0-.93,3,2.58,2.58,0,0,0,.2,1.43,1.83,1.83,0,0,0,2.11.73,3,3,0,0,0,1.7-1.63,8.52,8.52,0,0,0,.61-2.33c.19-1.14.8-3-1-3.13-1-.07-2.26,1.2-2.73,1.92Z"
     class="cls-8" />
  <path
     id="path26"
     transform="translate(-157 -280.89)"
     d="M272.4,348.83a3.45,3.45,0,0,0,1.9-3.82c-.46-2.22-3.09-1.76-4.63-.84-3.25,1.94-.22,5.9,2.73,4.66Z"
     class="cls-8" />
</svg>
